<?xml version="1.0" standalone="no"?>
<!DOCTYPE svg PUBLIC "-//W3C//DTD SVG 20010904//EN"
 "http://www.w3.org/TR/2001/REC-SVG-20010904/DTD/svg10.dtd">
<svg version="1.0" xmlns="http://www.w3.org/2000/svg"
 width="1277.000000pt" height="1277.000000pt" viewBox="0 0 1277.000000 1277.000000"
 preserveAspectRatio="xMidYMid meet">
<metadata>
Created by potrace 1.11, written by Peter Selinger 2001-2013
</metadata>
<g transform="translate(0.000000,1277.000000) scale(0.100000,-0.100000)"
fill="#000000" stroke="none">
<path d="M6364 12748 c-4 -13 -10 -25 -14 -28 -4 -3 -28 -41 -54 -85 -26 -44
-51 -87 -56 -95 -8 -12 -73 -120 -115 -192 -46 -78 -76 -127 -178 -295 -64
-105 -117 -195 -117 -198 0 -3 -5 -11 -10 -18 -20 -23 -60 -88 -60 -96 0 -5
-7 -14 -15 -21 -8 -7 -12 -16 -9 -21 3 -5 1 -9 -4 -9 -4 0 -16 -15 -26 -32 -9
-18 -22 -42 -29 -53 -7 -11 -32 -54 -57 -95 -24 -41 -47 -77 -50 -80 -3 -3
-14 -21 -24 -40 -11 -19 -31 -53 -45 -75 -14 -22 -31 -49 -37 -61 -27 -50 -99
-169 -105 -174 -3 -3 -8 -9 -10 -15 -4 -9 -84 -145 -109 -185 -51 -80 -140
-233 -140 -240 0 -4 -3 -10 -7 -12 -11 -4 -143 -225 -143 -237 0 -5 -3 -11 -7
-13 -6 -2 -401 -650 -447 -733 -13 -23 -55 -92 -74 -120 -7 -11 -15 -28 -18
-37 -4 -10 -10 -18 -15 -18 -5 0 -9 -4 -9 -9 0 -8 -238 -408 -259 -436 -5 -5
-19 -30 -32 -55 -13 -25 -26 -47 -29 -50 -8 -7 -214 -351 -219 -364 -2 -6 -9
-18 -16 -26 -7 -8 -22 -31 -32 -50 -11 -19 -61 -103 -112 -187 -50 -83 -91
-156 -91 -162 0 -6 -5 -11 -10 -11 -6 0 -14 -8 -18 -18 -11 -30 -366 -616
-377 -624 -5 -4 -6 -8 -1 -8 5 0 2 -8 -6 -17 -8 -10 -35 -52 -59 -93 -24 -41
-54 -90 -67 -107 -14 -18 -21 -33 -17 -33 3 0 -1 -7 -9 -16 -9 -8 -16 -21 -16
-29 0 -7 -4 -15 -9 -17 -4 -1 -29 -39 -55 -83 -70 -118 -71 -120 -76 -125 -3
-3 -16 -25 -29 -50 -13 -25 -27 -49 -32 -55 -17 -23 -319 -529 -319 -536 0 -3
-7 -12 -15 -19 -21 -18 -19 -27 13 -43 15 -7 126 -72 247 -144 121 -72 234
-139 252 -149 18 -11 92 -54 165 -98 73 -43 147 -87 165 -97 17 -10 50 -29 72
-43 22 -15 44 -26 48 -26 3 0 14 -6 22 -14 9 -7 36 -24 61 -37 25 -13 47 -27
50 -30 3 -4 25 -17 49 -30 24 -13 51 -29 60 -34 9 -6 47 -28 84 -50 38 -22 81
-47 95 -56 15 -9 43 -25 62 -36 81 -47 115 -67 120 -73 3 -3 21 -14 40 -23 19
-10 55 -31 80 -46 36 -22 243 -146 320 -191 8 -5 68 -40 133 -79 65 -39 123
-71 128 -71 5 0 9 -5 9 -11 0 -5 4 -8 9 -5 5 3 14 -1 21 -9 7 -8 19 -15 26
-15 8 0 14 -4 14 -9 0 -5 8 -11 18 -14 9 -4 35 -17 57 -30 202 -122 247 -147
255 -147 6 0 10 -4 10 -10 0 -5 7 -10 15 -10 8 0 15 -3 15 -8 0 -4 15 -14 33
-21 17 -8 55 -29 82 -46 28 -18 127 -77 220 -132 94 -55 192 -113 218 -129 62
-37 115 -68 147 -86 62 -36 103 -60 220 -130 69 -41 157 -94 197 -116 l71 -42
34 18 c18 9 35 20 38 23 3 3 30 19 60 36 30 17 135 78 233 137 98 58 180 106
183 106 3 0 10 5 17 10 7 6 59 38 117 71 58 34 121 71 140 84 47 30 380 225
427 250 21 11 40 23 43 26 3 3 68 42 145 88 77 45 149 87 160 94 11 6 48 29
82 49 34 21 67 38 73 38 5 0 10 5 10 10 0 6 4 10 9 10 6 0 65 33 133 73 104
63 176 105 349 207 26 15 146 86 177 105 9 6 44 25 77 44 33 19 62 37 65 40 4
5 27 18 115 65 11 6 22 14 25 17 3 3 36 23 73 45 38 21 84 48 103 59 91 53
410 243 443 262 20 13 54 32 76 44 22 12 42 24 45 28 5 6 35 23 100 58 19 10
37 20 40 23 10 11 132 80 141 80 5 0 9 5 9 10 0 6 6 10 14 10 7 0 19 7 26 15
7 9 15 13 17 11 3 -3 10 0 17 5 6 5 34 24 61 41 28 17 44 33 38 35 -7 3 -13 9
-13 14 0 5 -15 33 -34 62 -19 29 -43 69 -54 88 -11 19 -110 185 -222 369 -111
184 -211 349 -220 366 -39 67 -45 78 -53 88 -20 28 -127 210 -127 217 0 5 -4
9 -8 9 -4 0 -13 12 -19 28 -12 26 -33 62 -43 72 -3 3 -11 16 -18 29 -8 13 -23
40 -34 60 -11 20 -33 55 -49 78 -16 23 -29 44 -29 46 0 2 -36 63 -80 136 -44
72 -80 135 -80 140 0 5 -3 11 -7 13 -11 4 -113 174 -113 187 0 6 -4 11 -8 11
-5 0 -16 15 -25 33 -9 17 -27 49 -39 69 -13 20 -74 121 -136 225 -63 103 -145
239 -183 302 -38 63 -69 118 -69 123 0 4 -3 8 -7 8 -5 0 -13 10 -19 23 -15 29
-41 75 -62 109 -57 93 -330 546 -347 577 -11 20 -22 38 -25 41 -12 12 -220
362 -220 371 0 5 -4 9 -8 9 -4 0 -19 22 -33 50 -13 27 -27 50 -31 50 -5 0 -8
7 -8 15 0 8 -4 15 -9 15 -5 0 -11 8 -14 18 -4 9 -18 35 -32 57 -14 22 -32 54
-40 70 -9 17 -36 62 -61 100 -24 39 -49 79 -55 90 -5 11 -23 40 -39 65 -16 25
-34 54 -40 65 -6 11 -22 38 -36 60 -13 22 -27 48 -31 58 -3 9 -9 17 -14 17 -5
0 -9 5 -9 11 0 6 -13 30 -30 54 -16 24 -30 48 -30 54 0 6 -5 11 -11 11 -5 0
-8 4 -4 9 3 5 1 12 -4 15 -5 3 -31 43 -57 89 -27 45 -52 84 -56 85 -4 2 -8 8
-8 13 0 5 -12 28 -27 52 -30 46 -55 88 -75 127 -7 14 -15 27 -18 30 -3 3 -50
79 -104 170 -54 91 -105 173 -114 183 -8 9 -12 17 -9 17 3 0 -9 22 -26 49 -43
66 -91 145 -92 151 0 3 -8 16 -17 30 -50 78 -118 193 -118 200 0 5 -4 10 -8
12 -5 2 -23 30 -42 63 -19 33 -50 85 -69 115 -20 30 -36 57 -36 60 0 3 -13 24
-28 47 -15 24 -27 47 -27 53 0 5 -4 10 -9 10 -5 0 -11 8 -15 18 -3 9 -15 31
-26 47 -10 17 -26 42 -35 58 -19 33 -22 33 -31 5z"/>
<path d="M2478 5494 c39 -49 87 -116 132 -184 25 -36 47 -67 50 -70 3 -3 39
-52 79 -110 41 -58 87 -122 103 -142 15 -20 28 -42 28 -47 0 -6 3 -11 8 -11 4
0 15 -12 24 -28 9 -15 33 -49 53 -77 20 -27 50 -71 68 -97 17 -27 35 -48 39
-48 5 0 8 -5 8 -11 0 -5 13 -27 29 -47 15 -20 84 -116 152 -212 68 -96 127
-176 131 -178 4 -2 8 -10 8 -18 0 -8 5 -14 10 -14 6 0 10 -4 10 -10 0 -5 21
-38 48 -73 26 -36 53 -73 60 -83 36 -53 205 -291 215 -304 7 -8 32 -44 56 -80
24 -36 58 -84 75 -106 17 -23 37 -50 44 -60 7 -11 46 -66 88 -124 41 -58 82
-116 91 -130 10 -14 41 -57 70 -96 29 -40 53 -77 53 -83 0 -6 3 -11 8 -11 4 0
26 -28 50 -63 23 -34 70 -100 103 -147 33 -47 72 -103 87 -125 15 -22 30 -42
33 -45 3 -3 28 -36 54 -75 27 -38 72 -102 100 -140 29 -39 57 -80 63 -92 7
-12 18 -27 25 -35 7 -7 28 -35 47 -63 19 -27 37 -51 42 -53 4 -2 8 -9 8 -16 0
-7 9 -21 20 -31 11 -10 20 -24 20 -30 0 -7 7 -16 16 -19 8 -3 12 -10 9 -16 -3
-5 -2 -10 2 -10 5 0 23 -21 40 -47 18 -27 59 -85 93 -131 33 -46 60 -87 60
-93 0 -5 3 -9 8 -9 4 0 18 -18 32 -40 14 -22 28 -40 32 -40 5 0 8 -5 8 -11 0
-6 10 -24 23 -39 12 -15 29 -37 37 -50 29 -44 85 -122 123 -171 20 -26 37 -53
37 -59 0 -5 5 -10 10 -10 6 0 10 -6 10 -14 0 -8 4 -16 8 -18 5 -2 27 -30 50
-63 23 -33 69 -98 102 -145 59 -83 105 -147 125 -178 6 -8 16 -22 23 -31 13
-14 152 -211 270 -381 25 -36 49 -66 54 -68 4 -2 8 -9 8 -15 0 -7 9 -23 20
-37 29 -36 73 -95 88 -116 7 -11 35 -50 62 -89 27 -38 54 -77 60 -85 6 -8 30
-43 54 -77 l43 -63 17 23 c17 22 38 52 126 178 24 35 48 69 52 74 4 6 19 24
33 41 14 18 25 35 25 39 0 3 6 12 13 19 6 8 18 22 25 32 7 11 57 82 112 159
54 77 109 155 122 173 13 18 31 42 41 54 9 11 17 24 17 28 0 3 8 15 18 26 9
10 26 32 37 48 11 16 27 39 35 50 8 12 24 36 35 54 11 17 23 32 28 32 4 0 7 4
7 10 0 5 7 18 15 27 8 10 68 95 134 188 66 94 124 175 129 181 5 5 29 39 53
73 24 35 58 82 74 106 17 23 61 86 100 141 167 237 255 360 269 377 9 9 14 17
11 17 -5 0 18 29 43 55 6 8 12 16 12 20 0 3 27 43 59 88 33 45 70 97 83 116
13 18 31 42 41 52 9 10 18 25 20 31 1 7 7 17 13 23 6 5 60 80 119 165 60 85
112 157 115 160 3 3 10 13 15 22 6 9 38 55 73 102 34 48 62 90 62 95 0 5 7 12
16 15 8 3 13 10 10 15 -4 5 -2 11 3 13 4 1 43 53 86 113 43 61 82 112 87 113
4 2 8 9 8 16 0 7 9 21 20 31 11 10 18 20 16 22 -2 3 3 13 12 22 9 10 24 28 32
40 8 13 30 43 48 67 17 23 32 47 32 53 0 5 4 11 8 13 7 3 159 214 400 558 98
139 154 216 172 237 5 7 10 16 10 22 0 5 4 11 8 13 5 2 27 31 50 64 23 34 47
68 54 76 7 8 18 21 23 30 31 50 120 173 127 176 4 2 8 10 8 17 0 8 6 18 13 22
16 10 57 69 57 82 0 5 3 11 8 13 11 5 162 217 162 227 0 5 4 11 8 13 4 2 23
25 42 53 42 60 96 134 116 158 8 9 14 21 14 26 0 4 11 20 25 35 14 15 25 31
25 35 0 5 7 14 15 21 8 7 15 16 15 21 0 4 -57 -26 -127 -68 -71 -42 -141 -84
-158 -93 -16 -10 -99 -59 -183 -109 -84 -50 -157 -91 -163 -91 -5 0 -9 -4 -9
-9 0 -5 -9 -13 -20 -16 -11 -4 -48 -24 -83 -45 -34 -22 -73 -45 -87 -53 -14
-8 -85 -50 -158 -93 -135 -80 -166 -98 -288 -168 -38 -22 -71 -43 -74 -46 -3
-4 -20 -13 -37 -21 -18 -8 -33 -16 -33 -19 0 -3 -30 -21 -68 -40 -37 -19 -69
-38 -72 -41 -5 -7 -68 -45 -151 -91 -24 -14 -90 -53 -145 -87 -56 -33 -106
-61 -112 -61 -6 0 -12 -3 -14 -8 -4 -9 -126 -82 -139 -82 -5 0 -9 -4 -9 -10 0
-5 -4 -10 -10 -10 -5 0 -57 -29 -115 -65 -58 -35 -105 -61 -105 -57 0 4 -4 2
-8 -4 -4 -5 -72 -48 -152 -94 -80 -47 -146 -88 -148 -92 -2 -5 -7 -8 -12 -8
-5 0 -43 -20 -84 -45 -42 -25 -81 -45 -86 -45 -6 0 -10 -4 -10 -8 0 -4 -19
-18 -42 -30 -24 -12 -60 -32 -80 -44 -20 -13 -78 -47 -130 -77 -51 -29 -94
-58 -96 -62 -2 -5 -12 -9 -23 -9 -10 0 -19 -4 -19 -10 0 -5 -4 -10 -8 -10 -5
0 -62 -32 -128 -71 -65 -40 -132 -80 -149 -89 -16 -9 -107 -63 -201 -118 -124
-74 -176 -100 -192 -95 -12 3 -22 9 -22 13 0 4 -8 10 -17 14 -10 3 -36 17 -58
31 -22 14 -48 28 -57 32 -10 3 -18 9 -18 14 0 5 -4 9 -9 9 -9 0 -284 159 -306
177 -5 5 -21 14 -35 21 -47 23 -135 75 -140 82 -3 4 -10 9 -15 11 -11 4 -272
157 -357 208 -14 9 -57 34 -95 55 -37 22 -103 61 -145 88 -43 26 -81 48 -84
48 -3 0 -18 8 -32 19 -15 10 -47 29 -72 43 -25 14 -115 67 -200 118 -85 51
-173 103 -195 115 -81 47 -160 95 -172 105 -7 5 -15 10 -18 10 -4 0 -79 44
-168 97 -89 53 -173 103 -187 110 -14 8 -38 23 -55 33 -16 10 -41 25 -55 33
-84 47 -176 102 -180 107 -3 3 -21 14 -40 23 -19 10 -47 26 -62 35 -14 9 -57
35 -95 56 -37 22 -70 42 -73 45 -3 4 -16 12 -30 18 -14 7 -43 24 -65 38 -22
14 -47 28 -55 32 -8 4 -50 29 -93 55 -43 26 -83 48 -88 48 -5 0 -9 5 -9 10 0
6 -5 10 -10 10 -6 0 -55 27 -110 60 -55 33 -104 60 -109 60 -5 0 -11 4 -13 8
-1 5 -23 20 -48 34 -89 50 -119 67 -159 92 -22 15 -45 26 -50 26 -5 0 -11 3
-13 8 -1 4 -23 18 -48 31 l-45 25 23 -30z"/>
</g>
</svg>
